<?xml version="1.0" standalone="no"?>
<!DOCTYPE svg PUBLIC "-//W3C//DTD SVG 20010904//EN"
 "http://www.w3.org/TR/2001/REC-SVG-20010904/DTD/svg10.dtd">
<svg version="1.0" xmlns="http://www.w3.org/2000/svg"
 width="100.000000pt" height="100.000000pt" viewBox="0 0 100.000000 100.000000"
 preserveAspectRatio="xMidYMid meet">

<g transform="translate(0.000000,100.000000) scale(0.100000,-0.100000)"
fill="#000000" stroke="none">
<path d="M345 675 c-24 -23 -25 -29 -25 -160 0 -133 0 -135 20 -125 18 10 20
21 20 129 0 84 4 122 13 129 7 6 72 12 151 13 132 2 140 1 157 -20 13 -16 16
-35 14 -79 -3 -31 -4 -89 -5 -129 0 -97 -7 -103 -120 -103 -84 0 -90 1 -106
25 -11 16 -26 25 -43 25 -15 0 -33 6 -40 13 -11 10 -11 8 -1 -9 9 -15 20 -19
40 -16 22 3 30 -1 35 -17 3 -12 11 -21 16 -21 6 0 9 -10 7 -22 -2 -16 -12 -25
-33 -29 -30 -7 -30 -7 -3 -8 15 0 30 4 33 9 3 6 46 10 95 10 155 0 163 10 158
216 -2 76 -5 146 -8 154 -10 30 -59 40 -207 40 -139 0 -145 -1 -168 -25z"/>
<path d="M763 657 c12 -13 28 -21 36 -18 10 3 8 7 -6 12 -12 4 -24 12 -28 18
-3 6 -10 11 -15 11 -5 0 1 -10 13 -23z"/>
<path d="M843 640 c9 -6 17 -17 17 -24 0 -7 10 -21 22 -32 21 -18 22 -18 8 0
-8 10 -19 27 -25 39 -5 11 -17 22 -25 24 -10 3 -9 1 3 -7z"/>
<path d="M447 584 c-14 -15 -6 -34 14 -34 14 0 19 5 17 17 -3 18 -20 27 -31
17z"/>
<path d="M887 536 c-4 -11 -25 -16 -74 -19 l-68 -3 66 -2 c49 -1 70 2 79 13 7
9 11 18 8 21 -3 3 -8 -2 -11 -10z"/>
<path d="M440 470 c0 -53 2 -60 20 -60 18 0 20 7 20 60 0 53 -2 60 -20 60 -18
0 -20 -7 -20 -60z"/>
<path d="M500 470 c0 -53 2 -60 20 -60 17 0 20 7 20 39 0 42 16 63 31 40 5 -8
9 -29 9 -47 0 -26 4 -33 18 -30 21 4 29 67 12 98 -9 16 -21 20 -60 20 l-50 0
0 -60z"/>
<path d="M279 353 c-13 -16 -12 -17 3 -5 9 8 22 11 28 7 5 -3 10 -1 10 4 0 17
-26 13 -41 -6z"/>
<path d="M233 324 c-12 -32 11 -49 68 -50 l54 -1 -55 6 c-43 5 -56 10 -58 25
-2 10 2 22 10 27 10 7 10 9 0 9 -7 0 -15 -7 -19 -16z"/>
</g>
</svg>
