<?xml version="1.0" standalone="no"?>
<!DOCTYPE svg PUBLIC "-//W3C//DTD SVG 20010904//EN"
 "http://www.w3.org/TR/2001/REC-SVG-20010904/DTD/svg10.dtd">
<svg version="1.0" xmlns="http://www.w3.org/2000/svg"
 width="64.000000pt" height="64.000000pt" viewBox="0 0 64.000000 64.000000"
 preserveAspectRatio="xMidYMid meet">

<g transform="translate(0.000000,64.000000) scale(0.100000,-0.100000)"
fill="#000000" stroke="none">
<path d="M161 623 c-88 -31 -161 -136 -161 -233 0 -180 197 -303 359 -223 38
19 41 19 56 3 8 -9 15 -21 15 -26 0 -5 28 -38 63 -72 63 -63 98 -77 125 -50
27 27 13 63 -51 126 -34 34 -67 62 -71 62 -5 0 -17 7 -26 15 -16 15 -16 18 3
56 99 200 -99 417 -312 342z m179 -24 c25 -11 56 -30 69 -42 36 -33 71 -115
71 -167 0 -49 -29 -122 -63 -159 -33 -36 -115 -71 -167 -71 -52 0 -134 35
-167 71 -61 66 -78 170 -42 249 27 60 54 88 114 116 62 29 125 30 185 3z m110
-388 c0 -12 -20 -25 -27 -18 -7 7 6 27 18 27 5 0 9 -4 9 -9z m104 -80 c59 -60
70 -92 32 -99 -22 -5 -136 103 -136 129 0 48 37 37 104 -30z"/>
<path d="M175 561 c-154 -71 -150 -280 7 -346 47 -19 89 -19 136 0 160 67 160
283 0 350 -49 20 -94 19 -143 -4z m138 -15 c44 -18 95 -78 103 -121 11 -60 -4
-106 -50 -151 -72 -72 -160 -72 -232 0 -67 67 -72 154 -11 223 53 60 122 78
190 49z"/>
<path d="M183 510 c-46 -27 -41 -45 4 -20 21 11 48 20 60 20 13 0 23 5 23 10
0 17 -53 11 -87 -10z"/>
<path d="M310 500 c0 -5 9 -14 20 -20 22 -12 27 -1 8 18 -14 14 -28 16 -28 2z"/>
<path d="M100 390 c0 -5 9 -10 20 -10 11 0 20 5 20 10 0 6 -9 10 -20 10 -11 0
-20 -4 -20 -10z"/>
<path d="M360 390 c0 -5 9 -10 20 -10 11 0 20 5 20 10 0 6 -9 10 -20 10 -11 0
-20 -4 -20 -10z"/>
<path d="M110 340 c0 -5 6 -10 14 -10 8 0 18 5 21 10 3 6 -3 10 -14 10 -12 0
-21 -4 -21 -10z"/>
<path d="M355 340 c3 -5 13 -10 21 -10 8 0 12 5 9 10 -3 6 -13 10 -21 10 -8 0
-12 -4 -9 -10z"/>
<path d="M145 299 c-4 -6 -5 -13 -2 -16 7 -7 27 6 27 18 0 12 -17 12 -25 -2z"/>
<path d="M332 299 c2 -7 10 -15 17 -17 8 -3 12 1 9 9 -2 7 -10 15 -17 17 -8 3
-12 -1 -9 -9z"/>
<path d="M197 284 c-4 -4 -7 -14 -7 -23 0 -11 3 -12 11 -4 6 6 10 16 7 23 -2
6 -7 8 -11 4z"/>
<path d="M290 271 c0 -12 5 -21 10 -21 6 0 10 6 10 14 0 8 -4 18 -10 21 -5 3
-10 -3 -10 -14z"/>
<path d="M240 260 c0 -11 5 -20 10 -20 6 0 10 9 10 20 0 11 -4 20 -10 20 -5 0
-10 -9 -10 -20z"/>
</g>
</svg>
