<?xml version="1.0" standalone="no"?>
<!DOCTYPE svg PUBLIC "-//W3C//DTD SVG 20010904//EN"
 "http://www.w3.org/TR/2001/REC-SVG-20010904/DTD/svg10.dtd">
<svg version="1.0" xmlns="http://www.w3.org/2000/svg"
 width="100.000000pt" height="100.000000pt" viewBox="0 0 100.000000 100.000000"
 preserveAspectRatio="xMidYMid meet">

<g transform="translate(0.000000,100.000000) scale(0.100000,-0.100000)"
fill="#000000" stroke="none">
<path d="M460 731 c-128 -42 -204 -168 -171 -286 9 -34 8 -41 -12 -61 -12 -12
-38 -30 -57 -41 -67 -38 -48 -84 34 -81 l51 1 -55 6 c-47 5 -55 9 -58 28 -2
17 6 26 35 39 21 10 44 26 51 36 16 21 35 23 51 4 6 -7 22 -11 36 -8 18 3 27
-1 32 -14 4 -11 13 -24 21 -30 25 -19 10 -48 -28 -55 l-35 -6 32 -2 c17 0 34
3 37 8 4 6 21 5 43 -1 78 -21 174 11 233 79 18 21 45 41 59 44 24 6 24 7 3 8
-20 1 -21 4 -15 29 5 15 8 48 8 75 0 47 13 63 22 28 4 -16 8 -18 23 -9 21 14
48 5 57 -19 4 -10 15 -24 25 -31 41 -30 15 -71 -46 -74 l-41 -1 38 -4 c41 -5
77 16 77 44 0 8 -17 35 -37 60 -29 35 -42 44 -60 40 -17 -3 -31 5 -53 30 -17
18 -30 38 -30 43 0 18 -64 82 -103 101 -44 23 -128 33 -167 20z m148 -27 c176
-73 176 -335 0 -408 -53 -23 -168 -20 -168 3 0 4 28 5 63 3 50 -3 72 0 104 17
49 24 87 68 103 117 14 41 5 137 -14 157 -7 6 -15 20 -19 29 -3 9 -25 29 -47
44 -125 83 -295 1 -308 -148 -3 -36 1 -67 12 -92 19 -46 16 -54 -9 -26 -24 26
-32 124 -15 175 16 49 66 104 115 126 49 23 133 24 183 3z m-151 -85 c11 -11
110 -8 151 6 18 6 22 4 22 -13 0 -11 7 -36 15 -56 13 -32 13 -40 1 -70 -11
-27 -23 -37 -55 -47 -38 -11 -39 -12 -25 -35 9 -12 14 -38 12 -56 -3 -33 -3
-33 -58 -33 -53 0 -55 1 -58 28 -2 19 -9 27 -22 27 -19 0 -65 49 -55 58 3 3
12 -4 21 -16 19 -27 55 -29 71 -3 10 16 7 20 -29 30 -31 10 -43 20 -54 47 -13
30 -13 39 0 67 8 18 17 42 21 55 7 24 24 29 42 11z"/>
</g>
</svg>
